<svg id="Layer_1" enable-background="new 0 0 512 512" height="512" viewBox="0 0 512 512" width="512" xmlns="http://www.w3.org/2000/svg" xmlns:xlink="http://www.w3.org/1999/xlink"><linearGradient id="SVGID_1_" gradientUnits="userSpaceOnUse" x1="87.821" x2="424.179" y1="471.09" y2="134.732"><stop offset="0" stop-color="#ed2279"/><stop offset=".75" stop-color="#563d98"/></linearGradient><path d="m256 240.541c-62.596 0-113.521-50.925-113.521-113.521s50.925-113.52 113.521-113.52 113.521 50.925 113.521 113.521-50.925 113.52-113.521 113.52zm0-202.041c-48.811 0-88.521 39.71-88.521 88.521s39.71 88.521 88.521 88.521 88.521-39.71 88.521-88.521-39.71-88.521-88.521-88.521zm96.83 460h-193.66c-58.585 0-106.248-47.663-106.248-106.248v-33.163c0-58.585 47.663-106.248 106.248-106.248h.75c2.554 0 5.045.782 7.141 2.24 26.167 18.214 56.922 27.841 88.939 27.841s62.772-9.627 88.939-27.841c2.096-1.458 4.587-2.24 7.141-2.24h.75c58.585 0 106.248 47.663 106.248 106.248v33.163c0 58.585-47.663 106.248-106.248 106.248zm-196.673-220.604c-43.41 1.591-78.235 37.402-78.235 81.193v33.163c0 44.8 36.447 81.248 81.248 81.248h193.66c44.801 0 81.248-36.448 81.248-81.248v-33.163c0-43.791-34.825-79.603-78.235-81.193-29.632 19.659-64.061 30.026-99.843 30.026s-70.211-10.367-99.843-30.026z" fill="url(#SVGID_1_)"/></svg>